<?xml version="1.0" encoding="utf-8"?>
<!-- Generator: Adobe Illustrator 22.0.1, SVG Export Plug-In . SVG Version: 6.00 Build 0)  -->
<svg version="1.1" id="Слой_1" xmlns="http://www.w3.org/2000/svg" xmlns:xlink="http://www.w3.org/1999/xlink" x="0px" y="0px"
	 viewBox="0 0 1000 1000" style="enable-background:new 0 0 1000 1000;" xml:space="preserve">
<style type="text/css">
	.st0{fill:#FFFFFF;}
</style>
<g>
	<path class="st0" d="M775.5,771.8c0,15.3-12.3,27.7-27.5,27.7s-27.6-12.4-27.6-27.7v-0.3h-0.8c-13.1-107.4-102.3-190.9-211.8-194.4
		c-2.4,0.1-4.7,0.3-7.1,0.3s-4.7-0.3-7-0.3c-109.5,3.5-198.7,87-211.8,194.4h-0.7v0.3c0,15.3-12.3,27.7-27.5,27.7
		c-15.2,0-27.5-12.4-27.5-27.7l-0.3-2.6c0-3.6,0.8-7.1,2-10.2c13.8-97,77.2-178,163.9-215.5c-50.9-35-84.3-93.8-84.3-160.5
		c0-107.3,86.5-194.3,193.2-194.3s193.2,87,193.2,194.3c0,66.7-33.4,125.4-84.2,160.4c87.5,37.9,151.3,120,164.3,218.3
		c0.7,2.4,1.2,4.9,1.2,7.6L775.5,771.8z M638.7,383.1c0-76.6-61.8-138.8-138-138.8s-138,62.2-138,138.8c0,76.7,61.8,138.8,138,138.8
		C576.9,522,638.7,459.8,638.7,383.1z"/>
	<path class="st0" d="M990,500c0-270.6-219.4-490-490-490S10,229.4,10,500c0,234,164,429.6,383.3,478.3
		c29.4,7.3,64.6,11.7,106.7,11.7c42.2,0,77.4-4.4,106.7-11.7C826,929.6,990,734,990,500z M755,829.3c0-0.4,0-0.6,0-0.6
		c-66,51.3-147.6,83.5-236.7,87.4c-0.2,0-0.5,0-0.7,0c-2.7,0.1-5.4,0.2-8.2,0.3c-0.4,0-0.8,0-1.3,0c-2.7,0.1-5.5,0.1-8.2,0.1
		s-5.5,0-8.2-0.1c-0.4,0-0.8,0-1.3,0c-2.7-0.1-5.5-0.1-8.2-0.3c-0.2,0-0.5,0-0.7,0C392.6,912.2,311,880,245,828.7c0,0,0,0.2,0,0.6
		C146.7,753.1,83.5,634,83.5,500C83.5,270,270,83.5,500,83.5c224.6,0,407.7,177.8,416.2,400.4c0.2,5.3,0.3,10.7,0.3,16.1
		C916.5,634,853.3,753.1,755,829.3z"/>
</g>
</svg>
