<?xml version="1.0" encoding="utf-8"?>
<!-- Generator: Adobe Illustrator 19.0.1, SVG Export Plug-In . SVG Version: 6.00 Build 0)  -->
<svg version="1.1" id="Слой_1" xmlns="http://www.w3.org/2000/svg" xmlns:xlink="http://www.w3.org/1999/xlink" x="0px" y="0px"
	 viewBox="-227 -46 504 652" style="enable-background:new -227 -46 504 652;" xml:space="preserve">
<style type="text/css">
	.st0{fill:#072642;}
</style>
<title>HBA_logo</title>
<path class="st0" d="M265.8,407.4l-0.2-0.6l-7.5-8.6l-3.4,3.1c-0.2,0.2-14,13.1-32.7,27.8c-0.6-8.6-1.7-17.3-3.4-25.8
	c0-0.2,0-0.3,0-0.6l0,0c-0.4-14.3,16.5-31.7,16.5-31.7l-4.4-6.4c-6.8,4.3-14.1,7.6-21.8,10.1v-1.5c-8.9-20.4-21.7-39.3-39.3-57.9
	c-18.3-19.3-19-21.3-23-35.1l-1.3-4.3l-3.9,0.6c-3.8,0.8-7.2,2.7-9.8,5.5c-14.2-8.8-29.3-16-45.2-21.3c7.8-10.5,20.4-10.1,31.5-9.7
	h1.5c14.3,0,18.9-5,20.2-7.4c7.5-9.2,24.5-30.4,26.1-35.9c0.7-2.2,0.1-4.6-1.4-6.3c-6-6.8-29.7-4.5-41.3-2.8
	c1.8-1.5,3.4-3.1,4.9-4.9c7.6-1.2,14.1-2.1,19.8-3c30.5-4.5,40.7-6,63.5-20.8c28.5-18.4,25.4-56.3,25.4-56.7l-0.2-0.8
	c-1.1-3.9-3.5-6.3-6.5-6.5c-4.6-0.3-6.5,4.4-7.2,5.9c-0.8,1.8-1.3,3.8-1.9,5.8c-2.4,8.4-5.6,19.7-19.3,29.6
	c10.7-16.3,16.5-35.3,16.5-54.7c-0.3-38.7-6.3-61-7.2-64.1l-0.1-1.2l-0.7-0.6c-0.3-1.1-0.8-5.1,1.5-15.5c4.6-19.6,3.3-34.6-4.1-48.5
	c-1.6-3.7-4.4-3.7-5.5-3.5c-4,0.5-4.6,3.9-5.5,10.8c-0.8,5.8-1.8,11.6-3.4,17.3l-0.3,0.8c-4.1,13.9-5.1,15.3-7.8,15.3
	c-1.3,0-5-2.9-8.4-5.4c-10.9-8.6-23.1-15.5-36-20.5c-11.5-5-22.6-4.1-25.3,1.9c-1.3,2.9-0.4,6.9,4.6,9.2l0.3,0.2
	c7.1,3.3,28.8,13.4,52.6,50.5c13.9,21.7,18.1,48.2,11.5,73.1l-0.2,0.5c0,0.3-4.8,19.8-35.4,32.1l8.3-26.2c1.2-2.1,0.9-4.6-0.6-6.5
	c-3.2-3.4-8.4-0.8-11.3,0.6c-5.6,2.8-14.6,17-26.8,42.4c-8.6,2.3-37.9,10.9-62.6,28.6c-9.1-0.6-17.7,3.9-22.5,11.5
	c-3.1,0.3-6.2,0.4-9.3,0.3h-0.6l-0.6,0.1c-2.4,0.4-4.7,0.4-7.1,0c-4.8-7.9-13.5-12.4-22.7-11.8c-24.7-17.7-54-26.4-62.6-28.6
	c-11.8-25.3-20.8-39.7-26.5-42.4c-2.9-1.4-8.1-4-11.3-0.6c-1.6,1.8-1.8,4.4-0.6,6.5l8.3,26.2c-30.6-12.2-35.4-31.8-35.4-32.1
	l-0.2-0.6c-6.5-24.9-2.4-51.4,11.5-73.1c23.8-37,45.5-47.1,52.6-50.4l0.3-0.2c5-2.3,5.9-6.3,4.6-9.2c-2.7-6.1-13.8-6.9-25.1-2
	c-13,5-25.3,11.9-36.2,20.6c-3.4,2.5-7.1,5.4-8.4,5.4c-2.8,0-3.7-1.3-7.8-15.3l-0.3-0.8c-1.5-5.6-2.7-11.4-3.4-17.3
	c-1-6.8-1.5-10.2-5.5-10.8c-2.4-0.3-4.7,1.2-5.5,3.4c-7.3,14-8.6,29-4.1,48.6c2.4,10.2,1.8,14.3,1.5,15.5l-0.3,0.3l-0.3,1.2
	l-0.1,0.3v0.1l0,0c-1,3.4-7,25.7-7.2,64.1c0.1,19.4,5.8,38.5,16.5,54.7c-13.7-9.8-16.9-21.2-19.3-29.6c-0.5-1.9-1.2-3.9-1.8-5.8
	c-1.8-4.1-4.2-6.1-7.2-5.9c-3,0.3-5.4,2.6-6.5,6.5l-0.2,0.8c0,0.4-3,38.4,25.2,56.8c22.8,14.9,33,16.4,63.5,20.8
	c5.8,0.8,12.3,1.8,19.8,3c1.5,1.8,3.1,3.4,4.9,4.9c-11.6-1.7-35.3-4-41.3,2.8c-1.5,1.7-2.1,4.1-1.4,6.3c1.5,5.5,18.6,26.8,26.1,35.9
	c1.4,2.5,6,7.4,20.4,7.4l0,0h1.3c11.1-0.4,23.7-0.8,31.5,9.7c-15.9,5.3-31,12.5-45.2,21.3c-2.6-2.9-6-4.8-9.8-5.5l-3.9-0.6l-1.3,4.3
	c-4,13.8-4.6,15.8-22.9,35.1c-17.5,18.5-30.4,37.5-39.3,57.9l0,0v1.5c-7.7-2.4-15-5.7-21.8-10.1l-4.4,6.4c0,0,16.9,17.3,16.5,31.6
	c0,0.3,0,0.6,0,0.8c-1.7,8.5-2.8,17.1-3.4,25.8c-18.7-14.8-33.1-28.1-33.3-28.3l-2.1-2l-8.2,7.6l-0.3,0.7
	c-1.3,3.9-7.2,23.9,8.2,46.5c-18.3,23.4-18.3,47,0,63.5l0.2,0.2c12.5,8.8,29.2,9.1,41.9,0.5c7.1,13.2,27,44.1,65.3,62.8l-1.8,8.6
	c-0.6,2.3-0.3,4.6,1.1,6.5c2.2,3.2,6.4,4.7,12.9,4.7h226.9c6.5,0,10.7-1.5,12.9-4.7c1.3-1.9,1.7-4.4,1.1-6.5l-1.8-8.6
	c38.2-18.7,58.2-49.6,65.3-62.8c4.2,2.9,8.9,4.7,13.9,5.6c2.4,0.4,4.8,0.7,7.1,0.7c7.6,0.1,14.9-2.4,21-6.9l0.2-0.2
	c18.3-16.4,18.3-40,0-63.4C273,431.4,267.1,411.4,265.8,407.4z M172.8,503.8c-5.5,15.3-16.7,26.5-33.3,33.3l-7.5-36.2v-0.2l-0.1-0.3
	l0,0l0,0c-1.7-4.2-4.1-6.9-7.1-8.1c1.5-3.8,2.4-7.8,2.5-11.8l36.2-32.1c0.3,0.1,0.5,0.2,0.8,0.3c0.4,0.1,0.8,0.2,1.3,0.2
	c2.3,0,4.8-1.4,7.6-4.4l0,0v-0.1l0.3-0.3V444v-0.1c0.2-0.3,0.3-0.7,0.4-1.1c2.7-0.5,5-2.1,6.4-4.4c2.9-4.6,0.4-10.5,0.3-10.7
	l-0.1-0.3l-0.1-0.3l-0.2-0.2l-0.2-0.2l1.9-0.6c1.4,10.7,1.8,21.6,0.8,32.4c-4.9,2.9-9.4,5.4-13.7,7.4l-0.4,0.3l-0.4,0.3l-0.2,0.3
	l-5.8,10.2l-0.3,0.2l-0.2,0.6l-0.2,0.6C157.8,491.5,168.1,500.5,172.8,503.8z M79.3,569.6c-18.6-0.2-36.9,4.3-53.2,13v-95.7
	c2.6-2.7,18.1-17.2,41.2-17.2c23.5,0,40.9,15.9,43.4,18.3l18.5,94C122.4,578,105.1,569.6,79.3,569.6z M125.9,583.7H30.4
	c15.2-7.4,31.9-11.2,48.8-11.1C102.3,572.6,118.4,579.6,125.9,583.7z M-30.2,569.5c-25.9,0-43.2,8.4-49.9,12.4l18.5-94
	c2.6-2.4,19.9-18.3,43.4-18.3c23.1,0,38.5,14.5,41.2,17.2v95.6C6.5,573.8-11.7,569.4-30.2,569.5L-30.2,569.5z M18.5,583.7h-95.4
	c7.3-4.1,23.5-11.1,46.6-11.1C-13.4,572.5,3.4,576.3,18.5,583.7L18.5,583.7z M-112.7,478.5l-0.2-0.6l-0.2-0.6l-0.3-0.2l-5.8-10.2
	l-0.3-0.4l-0.4-0.3l-0.4-0.3c-4.2-2-8.8-4.5-13.7-7.4c-0.8-10.8-0.6-21.7,0.8-32.4l2,0.6l-0.2,0.2l-0.2,0.2l-0.1,0.3l-0.1,0.3
	c-0.1,0.3-2.5,6.1,0.3,10.7c1.4,2.3,3.8,3.9,6.4,4.4c0.1,0.3,0.3,0.8,0.4,1.1v0.1v0.1l0.3,0.3v0.1l0,0c2.9,2.9,5.4,4.4,7.6,4.4
	c0.4,0,0.8-0.1,1.3-0.2c0.3-0.1,0.5-0.2,0.8-0.3l36.2,32.1c0.1,4,1,8.1,2.5,11.8c-3,1.3-5.5,3.9-7.1,8.1v0.2v0.2v0.2l-7.6,36.3
	c-16.5-6.9-27.8-18-33.3-33.3C-119.2,500.5-108.9,491.5-112.7,478.5L-112.7,478.5z M-29.2,294.3c0.2,0.6,0.4,1.2,0.7,1.8
	c-31.7,13.3-45.3,23.5-48.8,26.4c-0.4-0.4-0.9-0.8-1.3-1.3C-75.9,318.8-62.8,308.3-29.2,294.3L-29.2,294.3z M15.3,346.4h18.5
	l7.3,6.1c-5.6,8.2-16,7.1-16.8,7.1l0,0c-0.4,0-10.7,1.4-16.3-7L15.3,346.4L15.3,346.4z M22.4,362.4c0.7,0,1.2,0,1.5,0
	c0.8,0.1,1.6,0.2,2.4,0.1c4.2,0,12.6-1.1,17.5-9c2.2-0.1,7.7-0.6,11.8-3.9l0.3-0.3l0.2-0.4c5.5-17.2,15.4-38.7,18.1-44.6
	c2.5,1.8,7.8,6,8.4,12.5v0.3l0.2,0.3c1.9,3.6,2.9,15.1,3,19.3v0.3l0.2,0.3c0,0.1,4.6,9.2-0.3,25.3c-0.3-0.9-0.7-2-0.9-3l-2.9,0.8
	c1.2,4.6,2.3,6.1,3,6.7c0,5.4-0.2,25.9-7.2,33.8c-0.6-2.9-0.9-5.9-0.8-8.9h-3c0,3.9,0.3,8.6,1.5,11c-1.8,8.5-7.2,15.6-14.9,19.5
	c0.2-1.5,0.5-3.1,0.9-4.6l-2.9-0.8c-0.6,1.8-0.9,3.8-1,5.7c-6.3,11.7-14.6,13.8-18.6,13.9c0.8-1.5,1.3-3.1,1.5-4.8l-3-0.3
	c-0.3,5.2-4.9,12.8-8.1,15.7c-2.8,0.5-5.5,0.4-8.2-0.2c-2.9-0.8-8.2-3.4-10.7-11.5v-6.8h-3v4.8c-9.7-4.1-13.9-8.8-15-10.2
	c0-2.2-0.3-4.4-1-6.4l-2.9,0.8c0.4,1.5,0.8,3,0.9,4.6c-7.7-3.9-13.3-11-14.9-19.5c1.3-2.4,1.5-7.1,1.5-11h-3.2
	c0.1,2.9-0.2,6-0.8,8.9c-7.1-8-7.3-28.4-7.2-33.8c0.8-0.5,1.8-2.1,3-6.7l-2.9-0.8c-0.3,1.1-0.6,2.2-0.9,3c-4.9-16-0.3-25.2-0.3-25.3
	l0.2-0.3v-0.3c0.2-4.1,1.1-15.7,3-19.3l0.2-0.3v-0.3c0.6-6.5,5.9-10.7,8.4-12.5c2.8,5.9,12.6,27.4,18.1,44.6l0.2,0.4l0.3,0.3
	c4,3.4,9.6,3.9,11.8,3.9C10,361.5,18.4,362.4,22.4,362.4z M127.9,321.3c-0.5,0.4-0.9,0.8-1.3,1.3c-3.5-2.9-17.1-13.2-48.8-26.4
	c0.3-0.6,0.4-1.3,0.7-1.8C111.6,308.3,124.9,318.8,127.9,321.3z M155.1,433.4l-50.9,45.7c-2.7-1.8-5.5-3.6-8.5-5.1l51.7-45.6
	C150.4,429.4,153.1,431.2,155.1,433.4L155.1,433.4z M166.6,429.4c1.6,0,3.2-0.8,4-2.2l-1.3-0.7l-1.3-0.8c0,0-0.8,0.9-4,0.6
	c-3.3-3.5-6.8-6.8-10.6-9.7c0.3-0.9,0.9-1.7,1.8-2.3c1.6-1.1,4.1-1.3,7.2-0.6l14,15.8c0.3,0.8,1.3,4.2-0.1,6.4
	c-0.9,1.3-2.4,2.1-3.9,2.4c-0.1-0.5-0.3-0.8-0.3-0.9l-0.1-0.2c-1.6-2.7-3.4-5.3-5.4-7.6L166.6,429.4L166.6,429.4z M165.3,410.1
	l-0.3-0.3l-0.4-0.1l-0.4-0.1c-1.6-0.4-3.3-0.7-5-0.7c-2.3-0.1-4.5,0.6-6.5,1.8c-1.5,1.1-2.7,2.5-3.4,4.3c-2,0.8-3.6,2.4-4.6,4.2
	c-0.9,2-1.3,4.2-0.8,6.4l-20.6,18.1c-0.3-3.7-0.9-7.4-1.9-10.9l0.3-1.5l0.3-2.1c1.3-8.6-0.9-13.1-2.8-15.3c2.9-11-2.6-21-4.5-23.8
	c0.9-7.3-0.8-14.6-4.9-20.7c-0.3-19.6-16-36.9-20.1-41.1c-0.3-4.3-1.2-8.4-2.6-12.4c-0.9-7.3-6.1-12.2-9.3-14.6
	c27.2,11.5,40.4,20.7,44.8,24.2c-2.2,4.7-2.9,9.9-2.1,15l0.2,1.1l0.2,1.1l1.1,0.2l1.1,0.2c0.2,0,13.9,2.3,22.5,9.9
	c13,11.8,23,26.6,29,43.2l-2.8,2.9l-0.3,0.3l-0.1,0.3l-4.7,12.5L165.3,410.1z M-73.7,325.4c4.5-3.5,17.5-12.6,44.8-24.2
	c-3.3,2.4-8.4,7.3-9.3,14.6c-1.4,4-2.4,8.1-2.6,12.4c-4.1,4.2-19.8,21.5-20.1,41.1c-4,6.1-5.8,13.4-4.9,20.7
	c-1.8,2.9-7.3,12.9-4.5,23.8c-1.8,2.2-4.1,6.7-2.8,15.3l0.3,2.1l0.3,1.5c-1.1,3.5-1.8,7.2-1.9,10.9l-20.4-18
	c0.4-2.2,0.1-4.4-0.8-6.4c-1-1.9-2.6-3.4-4.6-4.2c-0.7-1.8-1.8-3.2-3.4-4.3c-1.9-1.3-4.2-1.9-6.5-1.8c-1.7,0-3.4,0.3-5,0.7l-0.4,0.1
	l-0.4,0.1l-0.3,0.3l-1.5,1.7l-4.7-12.5l-0.1-0.3l-0.3-0.3l-2.8-2.9c6-16.5,16-31.3,29-43.2c8.6-7.6,22.3-9.8,22.5-9.9l1.1-0.2
	l1.1-0.2l0.2-1.1l0.2-1.1C-70.8,335.4-71.5,330.1-73.7,325.4z M-98.7,428.3l51.7,45.5c-2.9,1.5-5.8,3.2-8.5,5.1l-50.8-45.4
	C-104.2,431.1-101.5,429.4-98.7,428.3L-98.7,428.3z M-113.6,413.9c3.1-0.8,5.6-0.5,7.2,0.6c0.8,0.6,1.4,1.3,1.8,2.3
	c-3.8,2.9-7.4,6.2-10.6,9.7c-0.5,0.1-1,0.1-1.5,0.1c-2,0-2.5-0.7-2.5-0.6l-2.8,1.3c0.9,1.3,2.4,2.2,4,2.2c-2,2.4-3.9,5-5.4,7.8
	l-0.1,0.2c0,0.1-0.2,0.4-0.3,0.9c-1.6-0.2-3-1-3.9-2.3c-1.4-2.3-0.4-5.5-0.1-6.4L-113.6,413.9z M-112.6,444c1-2.9,2.5-5.7,4.4-8.2
	l50.4,45.1c-2.2,1.6-4.3,3.4-6.2,5.3l-0.3,0.3v0.1L-112.6,444z M-65.2,490l-0.9,4.8c-1.3-0.8-2.8-1.3-4.2-1.5
	c-1.6-3.4-2.7-7-3.2-10.7L-65.2,490z M114.1,490l8.3-7.4c-0.5,3.7-1.6,7.3-3.2,10.7c-1.5,0.3-2.9,0.8-4.2,1.5L114.1,490z
	 M113.4,486.6L113.4,486.6l-0.3-0.4c-1.9-1.9-3.9-3.7-6.1-5.3l50.4-45.1c1.8,2.5,3.3,5.3,4.4,8.2L113.4,486.6z M185.4,424.2l1.7-0.9
	c1.8,11.2,2.4,22.5,1.5,33.8c-0.3,0.2-1.5,1.1-1.8,1.3C187.6,447,187.1,435.5,185.4,424.2L185.4,424.2z M190,422.4l4.9-1.4h0.3
	l0.2-0.2l4.1-3.3c1.6,10.3,2.1,20.8,1.5,31.3c-3,2.1-6.1,4.2-9.2,6.1C192.4,444.1,191.9,433.2,190,422.4L190,422.4z M211.8,407.9
	c0.2-0.2,1.1-1.2,1.3-1.3l0.2,1.1v0.3l0.1,0.4l0.2,1.1v0.2l0.3,1.5v0.1c0.1,0.6,0.2,1.1,0.3,1.7v0.1c0.1,0.6,0.2,1.2,0.3,1.8v0.2
	c0.1,0.6,0.2,1.2,0.3,1.8v0.3c0.1,0.6,0.2,1.1,0.3,1.7v0.4c0.1,0.5,0.1,1.1,0.2,1.6v0.6c0.1,0.5,0.1,1,0.2,1.5l0.1,0.8
	c0,0.4,0,0.9,0.1,1.3c0,0.3,0,0.7,0.1,0.9c0.1,0.3,0,0.8,0.1,1.3c0.1,0.4,0,0.8,0.1,1.1c0.1,0.4,0,0.7,0,1.1c0,0.3,0,0.8,0.1,1.3
	c0.1,0.4,0,0.5,0,0.8c0.1,1.1,0.1,2.3,0.1,3.4c0,0.9,0,1.8,0,2.8c-0.3,0.3-1.1,1-1.4,1.3C214.8,428.7,213.9,418.2,211.8,407.9
	L211.8,407.9z M211.9,440.9c-2.5,1.9-5.1,3.8-7.7,5.6c0.4-10.5-0.2-20.9-1.9-31.2c3.3-2.6,5.8-4.6,7.6-6.1
	C211.9,419.7,212.6,430.3,211.9,440.9L211.9,440.9z M139.4,322.5c-0.5-1.1-0.9-2.2-1.4-3.2c-4.3-9.4-7.4-16.4,0.3-27.8
	c5.7,14.9,14.7,22.6,15,22.9s29.8,27,46.9,65c-4,1.1-7.1,1.8-8.8,2.1c-8.8-18.4-21-34.9-36-48.7l-2,2.2
	c14.7,13.6,26.7,29.8,35.4,47.9l-7.4,7.8c-1.3-3.5-2.8-7-4.3-10.2c-7.2-17-22.9-34.2-33.3-40.4h-0.2c-4.8-2.1-9.7-3.8-14.8-5
	c-0.2-2.1,0.3-4.2,1.4-6c1.5-2.3,4.2-3.8,8-4.4l1.9-0.3L139.4,322.5z M134.5,288.4l0.1-0.2c0.3-0.4,0.7-0.8,1-1.2l0.4-0.4
	c0.3-0.3,0.5-0.5,0.8-0.8l0.6-0.5l0.7-0.6l0.5-0.3c0.3-0.3,0.7-0.4,1-0.6l0.4-0.3c0.3-0.2,0.7-0.3,1-0.4h0.1l0.1,0.3
	c1.9,6.6,3.3,10.7,6.5,15.8l0.4,0.7l0,0c3.2,4.8,8.1,10.4,17,19.8c3.4,3.5,6.5,7.1,9.5,10.6c0.7,0.8,1.3,1.6,2,2.4l0.9,1.1
	c10.9,13.4,19.9,28.2,26.7,44.1l0.1,0.3c-0.4,0.1-1.4,0.3-1.8,0.3c-17.3-38.7-46.8-66.2-47.2-66.4c-7.1-6.7-12.3-15-15.1-24.3
	l-0.9-2.8l-1.8,2.3c-10.9,14.3-7,23.1-2.4,33.3c0.3,0.5,0.9,1.5,1.2,2c-3.7,0.9-6.3,2.3-8,4.9c-1.8,2.7-2.6,6-2.4,9.2l0.3,0.9l1,0.2
	c5.2,1.1,10.2,2.8,15.1,5c10,6,25,22.6,32.1,39c1.8,3.7,3.6,7.1,5,10.9l-1.5,1.2c-6.9-17.9-16.3-32.8-29.4-44.5
	c-8.2-7.3-20-10.1-23.7-10.7c-0.3-3.2-0.6-13.1,7.7-16.5l1.7-0.7l-1-1.5c-5-7.8-5.7-17.6-1.8-26.1
	C132.1,291.8,133.3,290,134.5,288.4L134.5,288.4z M92.9,269.8c12.8,5,25,11.1,36.6,18.5h0.1l0.3,0.2l0.2,0.1l0.3,0.2h0.1
	c-0.3,0.5-0.6,0.9-0.8,1.4c-15-10-31.4-17.8-48.6-23.3c0.1-0.4,0.3-0.8,0.3-1.3l0,0C85.4,267,89.4,268.4,92.9,269.8L92.9,269.8z
	 M201.6,154.8l0.4-0.3c18.1-11.6,22.3-26.2,24.8-35.1c0.4-1.7,1-3.4,1.6-5l0.2-0.3c0.3-0.7,0.6-1.3,1.1-1.8l0,0l0,0
	c0.4,0.5,0.7,1.2,0.8,1.8l0,0c0.2,2.4,2,35.1-22.5,51.1c-21.5,14.1-30.6,15.5-61,19.8l-8.7,1.3H138l-4.6,0.7h-0.5l-4.9,0.8l0,0
	c1.5-3.5,4.5-10.3,8.1-18.9v0.8c14.5-0.4,29-2.4,43-5.9c3.4-0.9,6.8-1.9,10-3.2l1.7-0.7h0.1l1.8-0.8c0.8-0.3,1.5-0.7,2.3-1l0.5-0.3
	l1.5-0.8c0.7-0.3,1.3-0.7,2-1.1l0,0C200.3,155.8,200.9,155.3,201.6,154.8L201.6,154.8z M58.4,189.8L58.4,189.8L58.4,189.8
	L58.4,189.8l2.3-1.5l0.8-0.6l1.4-1l1.2-0.8l1.1-0.7l1.5-0.9l0.7-0.4l1.8-1.1l0.3-0.2c15.5-9,32-15.9,49.2-20.7l-0.8,1.8l-0.1,0.3
	c0,0.2-3.5,15.1-13.2,15.6c-11.8,0.6-16.9,11.3-17,11.8l2.8,1.3c0-0.1,4.6-9.6,14.4-10.1c11.5-0.5,15.5-16,16-17.8
	c0.6-1.3,1.2-2.6,1.8-3.9c1.3-2.6,2.6-5.4,3.9-8.2c3.3-6.6,6.9-13.4,10.2-19.2c4.2-7.2,8.1-12.8,10.6-14.4l0.4-0.3l0,0
	c1.1-0.6,2.2-1,3.3-1.4l-11,34.7l0,0c-8.1,19.1-14.9,35.1-15.8,37.1c-0.5,0.7-1.1,1.3-1.6,1.8v0.2c-7.4,8.1-14.9,9.7-23.8,8.5
	l-0.5-0.1l-1.5-0.3l-0.9-0.2l-1.3-0.3l-0.4-0.1l0,0l-0.4,0.2l-1.3,0.5l-1,0.4l-0.9,0.4l-1,0.5l-0.3,0.2c-7.9,4-10.6,8.6-11.4,10.7
	l0,0v0.1l-0.1,0.3l0,0c-1.3,0.8-2.7,1-4.1,0.8c-2.7-0.7-5.2-1.9-7.2-3.8l12.2-8.3l-1.8-2.4L64.2,207c-1.1-1.2-2.1-2.4-3-3.8
	C58.5,199,57.6,194.3,58.4,189.8z M101.3,205.9c-4.2,2.3-8.3,4.7-12.2,7.5c-1.4,1-2.8,1.9-4,2.7c-0.2-1.1-0.5-2.2-0.9-3.3
	c1.1-1.8,4-5,10.7-7.7C96.9,205.5,99.1,205.7,101.3,205.9z M-84.3,187.2h-0.5l-4.6-0.7h-0.4l-4.1-0.6l-0.9-0.2l-2.1-0.3l-1.4-0.3
	l-5.3-0.8c-26.1-3.9-35.4-5.9-55.7-19.1c-24.5-16-22.7-48.6-22.5-51.1l0,0c0.2-0.7,0.5-1.3,0.9-1.8l0,0c0.6,0.7,1,1.3,1.3,2.2
	c0.1,0.2,0.2,0.4,0.3,0.7c0.4,1.2,0.9,2.7,1.3,4.4l0.4,1.5c2.6,8.8,7.2,22.4,23.9,33.3l0.8,0.5l0.3,0.2c0.8,0.4,1.5,0.9,2.3,1.3
	c0.5,0.3,1,0.6,1.5,0.8l1.1,0.6c0.7,0.3,1.4,0.7,2.1,1l0.7,0.3c0.8,0.3,1.7,0.8,2.6,1.1h0.1l1.6,0.7c3.3,1.3,6.6,2.3,10.1,3.2
	c14.1,3.5,28.5,5.5,43,5.9v-0.8c3.7,8.6,6.6,15.5,8.1,18.9L-84.3,187.2z M-75.5,189c-0.8-1.9-7.8-18-15.8-37l0,0l-11.1-34.9l0,0h0.1
	c1.1,0.4,2.2,0.8,3.2,1.4l0,0l0.4,0.3c2.6,1.7,6.5,7.6,10.9,15c3.3,5.7,6.8,12.3,10,18.8c1.4,2.8,2.7,5.5,3.9,8.1
	c0.7,1.3,1.3,2.7,1.8,3.9c0.4,1.8,4.6,17.3,16,17.8c9.8,0.4,14.4,10,14.4,10.1l2.8-1.3c-0.3-0.4-5.4-11.3-17-11.8
	c-9.6-0.6-13.1-15.5-13.1-15.7l-0.1-0.3l-0.8-1.8c13.8,3.9,27.1,9.1,39.8,15.5l0,0c1.2,0.6,2.3,1.2,3.4,1.8l0,0
	c1.2,0.7,2.4,1.3,3.6,2l0.2,0.1l1.9,1.1l0.6,0.3l1.6,1l0.9,0.6l1.3,0.8l1.3,0.8l1,0.7l1.7,1.1l0.7,0.4l2.4,1.7l0,0
	c0.9,4.5,0,9.2-2.6,13.1c-0.9,1.3-1.9,2.6-3,3.8l-12.7-8.7l-1.8,2.5l12.2,8.3c-2,1.8-4.5,3.2-7.2,3.8c-1.4,0.3-2.9,0-4.1-0.8l0,0
	l-0.1-0.3l0,0v-0.1c-0.8-2-3.5-6.5-11.1-10.5l-0.6-0.3l-0.9-0.4l-1-0.4l-0.9-0.4l-1.3-0.6l-0.4-0.2l0,0l-0.4,0.1l-1.3,0.3l-0.9,0.2
	l-1.4,0.3l-0.6,0.1c-9,1.3-16.5-0.2-23.8-8.2l-0.3-0.3C-74.5,190.3-75,189.7-75.5,189L-75.5,189z M-35.2,212.8
	c-0.4,1-0.8,2.2-0.9,3.3c-1.3-0.8-2.6-1.7-4-2.7c-3.9-2.7-8-5.2-12.2-7.5c2.2-0.2,4.4-0.4,6.5-0.9C-39.1,207.7-36.4,211-35.2,212.8z
	 M-38,252.1l-0.5-0.4c-0.4-0.3-0.8-0.6-1.3-0.9l-0.6-0.4c-0.4-0.3-0.8-0.5-1.3-0.8l-0.6-0.3c-0.5-0.3-1-0.5-1.5-0.8l-0.6-0.3
	l-1.4-0.6l-0.8-0.3l-1.2-0.3l-0.8-0.3l-1.4-0.3l-0.8-0.2l-1.5-0.3l-0.8-0.2l-1-0.2l-1.3-0.2l-0.9-0.1l-0.9-0.1l-1.3-0.1h-1h-0.8
	h-1.5h-2.9c-1.5,0-3,0-4.6,0.1h-1.2l0,0c-2,0-4-0.1-6-0.4l0,0l-1.3-0.3h-0.3l-0.9-0.3l-0.4-0.1l-0.7-0.2l-0.5-0.2l-0.5-0.2l-0.5-0.2
	L-82,243l-0.5-0.3l-0.3-0.2l-0.4-0.3l-0.3-0.2l-0.3-0.2l-0.3-0.3l-0.2-0.1l-0.3-0.3l0,0c-0.3-0.3-0.4-0.4-0.6-0.8l0,0l-0.1-0.3v-0.1
	l-0.4,0.7l0,0l-0.1-0.2l-0.1-0.1l-2.1-2.5c-3.9-4.9-8.5-10.7-12.4-15.9l-0.8-1l-0.3-0.4c-5-6.6-8.9-12.2-9.4-14.1l0,0
	c0-0.1,0-0.1,0-0.2c0-0.2,0-0.3,0.1-0.3l0,0c0.2-0.2,0.3-0.3,0.5-0.4c3-2.1,14.5-3,31.7-0.8c1.7,0.3,3.4,0.4,5.3,0.8l1.2,0.3
	c12.7,2.2,21.6,8.1,28.7,13l1.7,1.1l0.4,0.3l1.4,0.9l0.3,0.2l1.5,0.9l0.4,0.3l1.2,0.7l0.4,0.3c0.5,0.3,0.9,0.5,1.4,0.7l0.3,0.1
	c1.4,0.7,2.9,1.1,4.5,1.3l1.8,0.2l1.5,0.1l-1.9-2.7c-0.4-0.7-0.8-1.4-1-2.3c-0.2-0.5-0.3-0.9-0.3-1.4v-0.3c0-0.4,0-0.9,0-1.3v-0.1
	c0.1-0.8,0.3-1.6,0.6-2.3l0,0c1.7,0.8,3.4,0.9,5.2,0.6c4.9-0.8,10.7-5.1,14.7-11.1c2.9-4.2,4-9.3,3.3-14.4l0,0
	c2.9-0.2,5.8,0.4,8.4,1.5l0.3,0.2l0.9,0.4l0.6,0.3l0.8,0.4l0.7,0.4l0.7,0.5l0.7,0.5l0.6,0.6l0.7,0.6l0.3,0.9l0.6,0.7
	c0.3,0.3,0.4,0.5,0.6,0.8s0.3,0.5,0.5,0.8s0.4,0.7,0.6,1s0.4,0.7,0.6,1.1l0.3,0.6l0,0l0.6,0.2l0.8,0.3l0.5,0.1l0.5,0.1l0.4,0.1
	l0.5,0.1h0.4h0.5h0.4H17h0.4h0.5h3.4h0.5l0,0c1-0.1,1.8-0.2,2.1-0.3l0,0c3.5,0.2,7.1,0,10.6-0.4h0.2l0.9-0.1l0.9-0.1l0.8-0.1l0,0
	l0.3-0.7c0.3-0.4,0.4-0.8,0.7-1.1s0.4-0.7,0.7-1l0.4-0.6c0.3-0.3,0.5-0.8,0.8-1.1l0.3-0.3c0.3-0.4,0.8-0.8,1.1-1.2l0,0
	c3.7-3.5,8.6-5.4,13.8-5l0,0c-0.8,5,0.4,10.2,3.3,14.4c4,5.9,9.8,10.2,14.7,11.1c1.8,0.3,3.6,0.1,5.2-0.6l0,0
	c0.3,0.8,0.5,1.5,0.6,2.3c0,0,0,0,0,0.1c0,0.4,0,0.9,0,1.3c0,0.1,0,0.2,0,0.3c-0.1,0.5-0.2,0.9-0.3,1.4c-0.3,0.8-0.6,1.5-1,2.3
	l-2,2.7l1.6-0.2l1.8-0.2c1.6-0.2,3.1-0.6,4.5-1.3l0.3-0.1c0.5-0.3,0.9-0.4,1.4-0.8l0.4-0.2l1.2-0.7l0.3-0.3l1.5-0.9l0.2-0.1l1.5-1
	l0.3-0.2l1.8-1.2c7.2-4.9,16.1-10.9,29-13l1-0.2c2.1-0.3,4.1-0.6,6.1-0.8c14.1-1.7,24.2-1.3,28.9,0c0.9,0.3,1.8,0.7,2.5,1.3v0.1
	c0.1,0.1,0.1,0.2,0.1,0.3s0,0.2,0,0.3l0,0c-0.1,0.3-0.2,0.4-0.3,0.6l0,0c-2.7,4.6-5.7,9.1-9.1,13.3c-4.3,5.7-9.4,12.2-13.9,17.6
	l-1.7,2l-0.4,0.6l0,0l-0.3,0.4l0,0c0,0-2.1,4.4-14.9,4.4l0,0h-1.1h-1h-0.8H116h-1.5h-4.6h-1.8h-0.5l-1.8,0.1h-0.5l-1.8,0.2h-0.2
	l-1.7,0.3h-0.5l-1.8,0.3l-0.5,0.1c-0.6,0.2-1.2,0.3-1.8,0.4l-0.4,0.1l-1.5,0.5l-0.4,0.2c-0.6,0.3-1.2,0.4-1.7,0.7l-0.5,0.3
	c-0.6,0.3-1.1,0.5-1.7,0.8l-0.3,0.3c-0.5,0.3-1.1,0.6-1.5,0.9l-0.3,0.3c-0.5,0.3-0.9,0.7-1.4,1l-0.4,0.3c-0.5,0.4-1,0.8-1.5,1.3
	l-0.3,0.2c0.8-6.6-0.6-17-13-26.2l-1.8,2.4c18.1,13.5,10.6,28.7,10.2,29.4l0,0l0.8,0.4l-0.8-0.3l0,0l-0.1,0.2v0.1
	c-0.3,0.5-0.7,1.7-1.2,3.3c-0.3,0.7-0.4,1.3-0.7,2.1c-1,3.4-1.4,7.1-1.3,10.7c0.8,6.6,0.8,12.3-5.2,25.9c-0.3,0.4-6,12.5-11.6,26.5
	l-5-13l-0.4-0.3c0,0-1.6-1.1-3.1-2.3c-11.8-12.6-2.6-41.5-2.5-41.7l-2.9-0.9c-0.4,1.3-10,31,3.3,44.8l0.2,0.1c1.2,1,2.4,1.8,3,2.3
	l5.8,15.3c-2,5.1-3.9,10.4-5.5,15.4c-2.9,1.9-6.3,3-9.7,3l-7.4-6.1c0.8-1.7,1.6-3.4,2.3-5.1V340c0.2-0.5,0.3-1,0.5-1.5l0.2-0.6
	c0-0.3,0.1-0.5,0.2-0.7c0.1-0.5,0.3-0.9,0.3-1.4v-0.1c0.2-0.9,0.2-1.8,0-2.7c0-0.2-0.1-0.3-0.1-0.4c-0.2-0.4-0.3-0.8-0.7-1
	c-0.8-0.7-1.7-1.2-2.6-1.5l-0.3-0.2h-0.2c-0.9-0.3-1.7-0.8-2.4-1.4l-0.1-0.1c-0.1-0.1-0.1-0.1-0.1-0.2c-0.2-0.5-0.2-1,0-1.5l0,0
	c0.2,0.1,0.3,0.2,0.6,0.3c1.8,0.7,3.4,1.6,5,2.6l0.8,0.6l0,0l0.8-0.4c0.8-0.4,1.3-1,1.6-1.8c0.2-0.3,0.3-0.7,0.4-1.1l0.1-0.3
	c0.1-0.4,0.2-0.8,0.3-1.2c0-0.1,0-0.3,0-0.3c0.1-0.4,0.1-0.9,0.1-1.4v-0.1c0-0.6,0-1.2-0.1-1.8c0-0.3,0-0.4,0-0.6
	c-0.1-0.6-0.3-1.2-0.7-1.6c-0.7-0.8-1.3-1.6-2.2-2.2c-3.5-2.8-6-6.6-7-11l-2.9,0.8c1,4.3,3.3,8.2,6.5,11.3l0,0
	c-0.8,0-1.8,0.1-2.6,0.3h-0.3c-0.4,0.1-0.8,0.2-1.3,0.3c-0.5,0.2-1,0.3-1.5,0.5l-1.3,0.5h-0.2l-0.9,0.3h-0.2l-0.8,0.3h-0.1l-1.1,0.3
	h-0.3l-0.8,0.1h-0.5h-0.9V321c-0.3,0-0.5,0-0.8,0h-0.3h0.1h-0.3H22l-0.4-0.1l-0.7-0.2h-0.3l-1.1-0.3l-0.3-0.1l-1.4-0.5
	c-0.5-0.3-1.1-0.4-1.6-0.6l-0.5-0.1c-0.3-0.1-0.7-0.2-1-0.3l-0.6-0.1l-0.8-0.1h-0.7h-0.3c3.3-3,5.5-7,6.5-11.3l-2.9-0.8
	c-1,4.4-3.4,8.2-7,11c-0.8,0.7-1.5,1.3-2.2,2.2c-0.3,0.5-0.6,1.1-0.8,1.7l0,0l0,0c0,0.2,0,0.3,0,0.4c-0.1,0.6-0.1,1.2-0.1,1.8l0,0
	c0,0.5,0,1,0.1,1.5c0,0.1,0,0.2,0,0.3c0.1,0.4,0.2,0.9,0.3,1.3v0.2c0.2,0.4,0.3,0.8,0.5,1.3l0,0v0.1c0.8,1.3,1,1.7,1.2,1.8l0.8,0.4
	l0,0l0.8-0.6c1.7-1.2,3.4-2.2,5.3-3l0.6-0.3l0,0c0.2,0.5,0.2,1,0,1.5l0,0l-0.2,0.2c-0.7,0.7-1.5,1.2-2.4,1.5l0,0l-0.6,0.3
	c-0.8,0.3-1.6,0.8-2.3,1.4c-1.4,1.3-1,4.4,0.1,7.6c0.8,2.1,1.6,4.1,2.5,6.1l-7.4,6.1c-3.5-0.1-6.9-1.1-9.7-3
	c-1.5-5-3.5-10.2-5.5-15.4l5.8-15.3c0.6-0.4,1.8-1.3,3-2.3l0.2-0.1c13.2-13.9,3.7-43.6,3.3-44.8l-2.9,0.9c0.1,0.3,9.3,29.1-2.5,41.7
	c-1.5,1.3-3,2.3-3.1,2.3l-0.4,0.3l-4.9,13.4c-5.6-14-11.3-26-11.6-26.5c-6-13.5-6-19.2-5.2-25.9c0.3-3.6-0.2-7.2-1.3-10.7
	c-0.3-0.8-0.4-1.5-0.7-2.3c-0.7-2-1.3-3.3-1.3-3.4l0,0l-0.8,0.3l0.8-0.4l0,0c-0.1-0.2-8-15.8,10.2-29.4l-1.7-3.1
	c-12.4,9.2-13.9,19.6-13,26.2l-0.3-0.3C-37,252.8-37.5,252.4-38,252.1z M-79.1,287.2c10.8-6.7,22.3-12.4,34.3-17.1
	c3.9-1.5,8.1-3,12.4-4.4l0,0c0.1,0.4,0.3,0.8,0.3,1.3c-17.2,5.5-33.6,13.3-48.6,23.3c-0.3-0.5-0.6-1-0.8-1.4l0,0
	C-81.2,288.5-80.3,287.9-79.1,287.2L-79.1,287.2z M-155.1,377.4c0.4-1,0.9-2.1,1.3-3l0.3-0.6c0.5-1.1,1-2.2,1.5-3.3l0.2-0.3
	c0.6-1.2,1.1-2.3,1.7-3.4v-0.2c0.8-1.7,1.8-3.4,2.7-5.1c2.4-4.5,5.2-8.9,8.1-13.3l0,0c0.8-1.2,1.6-2.4,2.4-3.6l0.3-0.4
	c0.8-1.1,1.5-2.1,2.3-3.2l1-1.3c0.6-0.8,1.1-1.5,1.7-2.3c0.8-1,1.5-2,2.4-3l0.4-0.5c3.9-4.8,8-9.5,12.4-14.2
	c9.3-9.8,14.4-15.6,17.5-20.6c3.2-5,4.5-9.1,6.4-15.5l0.2-0.6l0,0c0.3,0.2,0.8,0.3,1.1,0.5l0.4,0.2c0.3,0.2,0.7,0.4,1,0.7l0.4,0.3
	l0.8,0.6l0.6,0.5c0.3,0.3,0.6,0.5,0.8,0.8l0.4,0.4c0.3,0.3,0.7,0.8,1,1.2l0.1,0.2c1.3,1.6,2.4,3.4,3.2,5.3
	c3.9,8.4,3.2,18.3-1.8,26.1l-1,1.5l1.7,0.7c8.4,3.5,8.1,13.4,7.7,16.5c-3.7,0.8-15.5,3.4-23.8,10.7c-13.4,12.2-23.8,27.5-30.1,44.5
	l-0.9-0.8c1.4-3.9,3.4-7.6,5.1-11.4c7-16.4,22-32.9,32.1-39c4.9-2.2,9.9-3.8,15.1-5l1-0.2l0.3-0.9c0.3-3.2-0.5-6.5-2.3-9.2
	c-1.9-2.7-4.8-4.5-8.1-5.1l0.8-1.8c4.6-10.2,8.9-19-2-33.3l-1.7-2.3l-0.8,3.2c-2.9,9.2-8.1,17.5-15,24.3
	c-0.3,0.3-30.5,27.6-47.8,66.4l-1.1-0.3l0,0L-155.1,377.4z M-106.7,332.8c-14.9,13.8-27.2,30.3-36,48.7c-1.6-0.3-4.8-1-8.8-2.1
	c17-38,46.6-64.7,46.9-65c6.8-6.3,11.9-14.2,15.1-22.9c7.7,11.4,4.6,18.4,0.3,27.8c-0.5,1.1-0.9,2.1-1.4,3.2l-0.8,1.8l1.9,0.3
	c3.8,0.7,6.5,2.1,8,4.4c1.1,1.8,1.7,3.9,1.4,6c-5,1.2-10,2.9-14.8,5h-0.2c-10.4,6.2-26.1,23.4-33.3,40.4c-1.5,3.4-3,6.8-4.3,10.3
	l-7.4-7.8c8.6-18.1,20.6-34.3,35.3-47.9L-106.7,332.8z M-137.8,458.1c-0.3-0.2-1.5-0.8-1.8-0.9c-0.7-11.3-0.2-22.6,1.5-33.8l1.7,0.6
	C-138.2,435.2-138.7,446.6-137.8,458.1z M-142.9,455c-3-2-6.1-4.1-9.2-6.2c-0.6-10.5-0.1-21,1.5-31.3l4.1,3.3l0.2,0.2l5,1.5
	C-142.7,433.2-143.3,444.1-142.9,455L-142.9,455z M-155.2,446.6c-2.6-1.8-5.2-3.8-7.7-5.6c-0.8-10.7-0.1-21.3,2-31.7
	c1.8,1.5,4.4,3.5,7.6,6.1C-155,425.6-155.6,436.1-155.2,446.6L-155.2,446.6z M-165.9,438.9c-0.3-0.3-1.1-1.1-1.4-1.3
	c0-0.9,0-1.8,0-2.8s0-2.3,0.1-3.4c0-0.3,0-0.5,0-0.8s0-0.8,0-1.3c0-0.4,0-0.8,0-1.2s0-0.6,0-0.9s0-0.9,0.1-1.4v-0.7
	c0-0.6,0.1-1.2,0.2-1.7V423c0.1-0.7,0.2-1.3,0.2-1.9v-0.3c0.7-5.9,1.5-11,2.2-14.4l0,0c0.2,0.1,0.7,0.8,0.8,0.9
	C-165.8,417.8-166.5,428.4-165.9,438.9L-165.9,438.9z M-166.5,510.1c-2.9,2.9-6.5,5-10.3,6.2l-1.3,0.4l-0.9,0.3
	c-0.8,0.3-1.6,0.4-2.4,0.6l-0.8,0.1c-7.8,1.5-16-0.3-22.4-5c-1.3-1.2-2.5-2.4-3.7-3.8c-11.5-13.4-10.3-31.4,3.3-49.7l0.4-0.5l1-1.3
	l0.8-0.9l1.3-1.5l0.8-0.9l-0.8-1l-1-1.3l-0.6-0.8l-0.7-1l-0.4-0.6c-0.3-0.4-0.6-0.9-0.8-1.3l-0.1-0.1c-0.7-1-1.2-2-1.8-3
	c-8.1-15.3-6.1-28.3-4.6-33.6c25.4,30,74,57.9,94.5,69.2c3.3,12.5-10.7,20.4-11.3,20.7l-1,0.3l0.4,1.2c5.8,18.1,19.2,31.7,38.9,39.2
	l-0.5,2.4c-35.7-13.2-40.1-41.3-40.1-41.6l-3,0.4c0,0.3,4.6,30.5,42.5,44.3l-1.9,9.1c-48.4-19-53.5-62.6-53.6-63l-3,0.3
	c0,0.4,5.3,46.1,55.9,65.7l-2.1,10.2c-42.1-19.6-61.7-60.1-63.7-64.6c0.4-1.1,0.8-2.2,1.1-3.4l0,0c1.9-7.2,7.1-26.5-10.2-34.5
	c-6.9-3.2-14.5-3.4-20.4-0.6c-5.9,2.9-10.2,8.7-12.2,17l-2.6,10.7l5.4-9.6c5-8.8,17.7-12.3,24.7-8.9c6.2,2.7,10.4,6.7,12.2,12
	c1.3,4.2,1.4,8.7,0.3,13v0.1c-0.5,1.8-1.2,3.6-2.1,5.4C-164.3,507.8-165.3,509-166.5,510.1L-166.5,510.1z M-172.6,473.2
	c-2.4-1.1-4.9-1.6-7.5-1.5c-5.5,0.1-11,1.9-15.5,5.3c1.7-3.2,4.4-5.8,7.6-7.4c5-2.4,11.8-2.2,17.8,0.6c6.2,2.6,10.4,8.6,10.7,15.3
	c-2.3-5.2-6.7-9.3-13.2-12.1L-172.6,473.2z M256.9,509.4c-1,1.2-2.2,2.4-3.4,3.4l-0.3,0.2c-0.6,0.4-1.2,0.8-1.8,1.3l-0.9,0.5
	c-0.5,0.3-1,0.5-1.5,0.8l-0.8,0.4c-0.8,0.3-1.4,0.6-2.2,0.8l-0.3,0.1c-0.8,0.3-1.8,0.5-2.7,0.8l-0.7,0.1c-0.7,0.2-1.4,0.3-2.1,0.3
	l-0.8,0.1c-0.8,0-1.5,0.1-2.3,0.2h-0.7c-0.7,0-1.3,0-2.1-0.1c-0.3,0-0.7,0-1.1,0c-1-0.1-2.1-0.3-3.1-0.4c-1-0.2-1.7-0.3-2.4-0.6
	l-0.9-0.3l-1.3-0.4c-3.9-1.3-7.4-3.4-10.2-6.2c-1.1-1.1-2.1-2.4-2.9-3.7c-2.4-4.6-4.2-11.9-1.9-18.5c1.8-5.3,6-9.3,12.3-12
	c6.9-3.4,19.6,0.1,24.6,8.9l5.4,9.6l-2.6-10.7c-2-8.2-6.2-14.2-12.2-17s-13.5-2.6-20.4,0.6c-17.5,8.1-12.2,27.3-10.2,34.5l0,0
	c0.3,1.1,0.7,2.3,1.1,3.3c-2,4.5-21.6,45-63.7,64.6l-2.1-10c50.6-19.6,55.9-65.2,55.9-65.7l-3-0.3c0,0.4-5.1,44-53.6,63l-1.8-9.1
	c37.9-13.9,42.5-44,42.5-44.3l-3-0.4c0,0.3-4.4,28.4-40.1,41.6l-0.5-2.4c19.7-7.6,33.2-21.1,38.9-39.2l0.4-1.2l-1.1-0.6
	c-0.2-0.1-14.5-8.2-11.3-20.7c20.7-11.2,69.2-39.2,94.5-69.2c1.5,5.6,3.7,20.2-6.5,36.7l0,0c-0.3,0.4-0.6,0.9-0.9,1.4l-0.3,0.5
	l-0.6,1l-0.6,0.8c-0.3,0.4-0.7,0.9-1,1.4l-0.8,1l0.8,0.9c0.4,0.5,0.8,1,1.3,1.5l0.7,0.8l1.1,1.4l0.3,0.4
	C267.6,477.8,268.6,496,256.9,509.4z M208.1,485.5c0.3-6.7,4.5-12.7,10.7-15.3c3.1-1.5,6.5-2.3,10-2.3c2.7,0,5.4,0.5,7.8,1.7
	c3.3,1.6,5.9,4.2,7.6,7.4c-7-5.4-16.8-6.7-22.9-3.8C215,476,210.6,480.2,208.1,485.5z"/>
<g id="XMLID_17_">
	<g>
		<path class="st0" d="M161.8,428.4c0.1,0.9-0.3,1.8-0.8,2.6c-0.8,0.7-1.8,1-2.9,0.9c-2.5-2.9-5.9-5.2-9.6-6.5
			c-0.3-1.4-0.3-2.9,0.3-4.2c0.6-1.1,1.6-1.8,2.7-2.3C155.1,421.8,158.5,424.9,161.8,428.4z"/>
	</g>
</g>
<g id="XMLID_16_">
	<g>
		<path class="st0" d="M169.4,438.6c0.3,0.9,0.3,1.9,0.2,2.9c-2.9,2.9-4.1,2.9-4.4,2.8c-0.2-0.1-0.3-0.2-0.4-0.4
			c-1.1-3.3-2.6-6.3-4.6-9.2c1.1-0.2,2.1-0.7,2.9-1.4c0.6-0.5,1-1.2,1.3-1.9C166.1,433.7,167.9,436.1,169.4,438.6z"/>
	</g>
</g>
<g id="XMLID_15_">
	<g>
		<path class="st0" d="M-114.2,433.4c0.9,0.6,1.8,1.1,2.9,1.4c-1.9,2.9-3.5,5.9-4.6,9.2c-0.1,0.2-0.3,0.3-0.4,0.4
			c-0.3,0-1.5,0.1-4.4-2.8c-0.3-1-0.2-2,0.2-2.9c1.5-2.5,3.2-5,5-7.2C-115.2,432.3-114.7,432.8-114.2,433.4z"/>
	</g>
</g>
<g id="XMLID_14_">
	<g>
		<path class="st0" d="M-99.8,421.3c0.6,1.3,0.7,2.8,0.3,4.2c-3.8,1.3-7.1,3.6-9.7,6.6c-1,0-2-0.3-2.8-1c-0.7-0.8-0.9-1.7-0.8-2.6
			c3.2-3.4,6.6-6.6,10.3-9.5C-101.3,419.4-100.4,420.2-99.8,421.3z"/>
	</g>
</g>
<g id="XMLID_13_">
	<g>
		<path class="st0" d="M-125.9,401l5.8,15.5l-6.6,7.6l-7.3-2.1h-0.3l-3.5-1v-0.3l-2.9-0.5l-4.5-1.3c-12.1-9.6-16.8-13.4-18.5-14.9
			l-0.8-0.7c0.1-2.5-1-14.1-12.6-26.5l3.6,3l13.6,11.7l3.7,4.8l17.2,13.3l1.3-2.7l2-1.8l-15.3-14.6l-5.4-2.9l-17.4-13.8l-3.7-2.9
			c6.6,3.9,13.7,7.1,21.1,9.3c4.6,1.5,9.4,2.7,14.2,3.6L-125.9,401z"/>
	</g>
</g>
<g id="XMLID_12_">
	<g>
		<path class="st0" d="M226.4,371l-3.7,2.9l-17.4,13.8l-5.1,2.6l-15.5,14.9l2,1.8l1.3,2.7l17-13.1l3.9-5l13.7-11.7l3.6-3
			c-11.7,12.5-12.7,24-12.8,26.6l-0.8,0.6c-1.8,1.5-6.4,5.3-18.5,14.9l-10.8,3.2H183l-7.3,2.1l-6.7-7.6l5.8-15.5l16.3-17.2
			c4.8-0.9,9.6-2.1,14.3-3.6C212.8,378,219.8,374.9,226.4,371z"/>
	</g>
</g>
<g id="XMLID_11_">
	<g>
		<path class="st0" d="M114.4,427.6c3.4,6.6,4.9,14,4.5,21.5c0,0.3,0,0.4,0,0.7l-25.7,22.7c-8.1-3.8-16.9-5.8-25.7-5.9
			c-16,0.2-31.2,6.4-42.7,17.5c-11.9-10.9-27.1-17.2-43.1-17.5c-8.9,0.1-17.7,2-25.7,5.8l-25.7-22.7c0-0.3,0-0.4,0-0.7
			c-0.5-7.4,1.1-14.9,4.5-21.5c3.9-3,4.1-5.4,4-6h-3c0,0-0.3,1.9-4.3,4.5c-0.7-6.2,1.3-8.8,2.2-9.7l5.7-4.5l-1.9-2.3l-3.4,2.6
			c-1.9-8.2,1.8-15.9,3.6-19.1h0.4h0.2c0.9,0,3.2-0.6,7.4-11.3l-2.9-1.1c-1.1,2.9-2.4,5.7-4,8.4c-0.7-5.8,0.6-11.6,3.6-16.6
			c0.3,0.1,0.7,0.2,1,0.2h0.2c3.2,0,8.6-3.9,10.1-14.3l-3-0.4c-1.1,7.7-4.5,10.4-5.5,11.1c-0.4,0.3-0.9,0.5-1.4,0.6
			c0-15.3,11.1-29.7,16.5-35.9c0,1-0.1,1.8-0.2,2.3c-0.9,1.9-5,12.4,1,29.6c-0.1,3-0.7,29,8.9,38l0.3,0.2c0.2,0.2,0.4,0.3,0.7,0.3
			c2.2,9.6,8.7,17.5,17.7,21.5h0.2c0.3,0.1,0.5,0.1,0.8,0.1c0.1,0,0.2,0,0.3,0c1.9,2.3,7,7.1,17.2,11.1c3,9.3,9.7,12.2,12.6,13
			c1.3,0.4,2.6,0.6,3.9,0.6c2.3,0,4.5-0.3,6.7-0.8l0.3-0.2c0.2-0.1,0.3-0.2,0.4-0.3c2.6-3,5-6.3,7.1-9.7h0.9
			c4.1,0,12.3-1.4,19.6-13.8c0.2,0.1,0.3,0.1,0.5,0.1c0.3,0,0.5,0,0.8-0.1h0.2c9-3.9,15.5-11.9,17.7-21.5c0.3-0.1,0.4-0.2,0.7-0.3
			l0.3-0.2c9.6-9,9.1-34.9,8.9-38c6-17.1,1.9-27.5,1-29.6c0-0.5,0-1.3-0.2-2.3c5.5,6.2,16.6,20.7,16.5,36c-0.5-0.1-1-0.3-1.4-0.6
			c-1-0.7-4.5-3.4-5.5-11.1l-3,0.4c1.5,10.5,6.9,14.3,10.1,14.3h0.2c0.3,0,0.7-0.1,1-0.2c3,5,4.3,10.8,3.6,16.6
			c-1.6-2.7-2.9-5.5-4-8.4l-2.9,1.1c4.2,10.7,6.4,11.3,7.4,11.3h0.2h0.4c1.8,3.2,5.5,10.9,3.6,19.1l-3.4-2.6l-1.8,2.4l5.7,4.5
			c0.8,0.8,2.9,3.4,2.4,9.7c-4-2.5-4.3-4.4-4.3-4.4l-3-0.2C110.4,422.2,110.5,424.5,114.4,427.6z"/>
	</g>
</g>
<g id="XMLID_10_">
	<g>
		<path class="st0" d="M32.1,321.5c2.4-1.1,5.2-1.2,7.7-0.3c0.3,1.6,0.1,3.3-0.6,4.8c-3.4-2.6-5.9-3.7-7.2-3.3
			c-0.6,0.2-1.1,0.6-1.3,1.2c-2.3,5.2,1.8,7,3.9,8c0.7,0.3,1.3,0.6,2,1.1c0.5,1-1,5.7-3.4,10.4H15.7c-2.3-4.6-3.8-9.4-3.4-10.3
			c0.7-0.4,1.3-0.8,2.1-1c2-1.2,6.1-3,3.9-8.1c-0.3-0.7-0.8-1.2-1.4-1.3c-1.4-0.4-3.9,0.7-7.2,3.3c-0.7-1.5-0.8-3.2-0.6-4.8
			c2.5-0.8,5.3-0.8,7.7,0.3c1.9,0.8,4,1.4,6.1,1.7c0.4,0.1,0.9,0.1,1.4,0.1C27,323.2,29.6,322.6,32.1,321.5z"/>
	</g>
</g>
<g id="XMLID_9_">
	<g>
		<path class="st0" d="M-119.6,475.1c-22.4-12.3-66.8-38.9-90.2-66.8l-0.4-0.4l1.3-1.1l0.5,0.4c4,3.7,15.5,13.9,30.1,25.5l2.8,2.2
			l1.1,0.8l1.9,1.5c1.7,1.3,3.4,2.7,5.2,3.9c14.3,10.7,30.2,21.6,44.6,28.5L-119.6,475.1z"/>
	</g>
</g>
<g id="XMLID_8_">
	<g>
		<path class="st0" d="M258.6,408.6l-0.3,0.3c-23.3,28-67.8,54.6-90.4,67l3.1-5.5c14.4-7,30.3-17.7,44.6-28.5c2.4-1.8,4.3-3.2,6-4.6
			l0.9-0.8l2.2-1.7l0.9-0.8l2.1-1.7l1-0.8l2-1.6l1.4-1.2l1.8-1.5l2.4-2l0.5-0.3l2.2-1.8l0.6-0.5l2-1.7l0.6-0.5l1.9-1.6l0.5-0.4
			l1.8-1.5l0.4-0.3l1.7-1.5l0.4-0.3l1.5-1.3l0.4-0.3l1.3-1.2l0.4-0.3l1.2-1.1l0.3-0.3l1-0.9l0.3-0.3l0.8-0.7l0.3-0.3l0.5-0.5
			l0.4-0.3L258.6,408.6z"/>
	</g>
</g>
<g id="XMLID_7_">
	<g>
		<path class="st0" d="M145.3,572.8c39.5-18.1,59.9-54.2,64.8-64.2c0.6,0.8,1.2,1.7,1.9,2.5l-0.1,0.4
			c-11.8,23.1-29.6,42.6-51.5,56.5l-0.8,0.5c-0.8,0.5-1.7,1-2.5,1.5l-1.8,1.1l-1.7,0.9c-0.9,0.5-1.8,1-2.8,1.5l-1,0.5
			c-1.1,0.6-2.3,1.2-3.4,1.7L146,576L145.3,572.8z"/>
	</g>
</g>
<g id="XMLID_6_">
	<g>
		<path class="st0" d="M-102,573.6c-0.9-0.5-1.8-1-2.8-1.5l-1.6-0.9l-1.9-1.1l-2.4-1.4l-1.1-0.7c-1.1-0.7-2.1-1.3-3-2l-0.2-0.1
			c-20.3-13.8-36.9-32.5-48.2-54.3l-0.2-0.4c0.7-0.8,1.3-1.6,1.9-2.5c5,10,25.4,46.2,64.8,64.2l-0.7,3.2l-0.5-0.3
			c-1.1-0.4-2.3-0.9-3.4-1.5l0.3-0.2L-102,573.6z"/>
	</g>
</g>
<g id="XMLID_5_">
	<g>
		<path class="st0" d="M145.9,591.7c0.1,0.1,0.2,0.2,0.1,0.3c-0.1,0.2-0.2,0.3-0.3,0.5v0.1c-0.6,0.7-2,1.6-5.8,1.8h-0.8H-90.1
			c-4.4-0.2-6-1.2-6.5-1.9c-0.1-0.2-0.2-0.3-0.3-0.5c-0.1-0.2-0.1-0.3-0.1-0.4s0-0.2,0-0.3v-0.1V591l2.9-13.8l15.6-75.3
			c1.3-3.2,3-5.1,5.3-5.7c2.3-0.3,4.7,0.2,6.5,1.5l-17.5,88.9H133l-17.5-88.7c1.9-1.3,4.3-1.8,6.5-1.5c2.2,0.6,3.9,2.4,5.3,5.7
			l18.5,88.8v0.2c0,0.1,0,0.1,0,0.2C145.8,591.4,145.9,591.5,145.9,591.7C145.9,591.6,145.9,591.6,145.9,591.7z"/>
	</g>
</g>
<g id="XMLID_4_">
	<g>
		<path class="st0" d="M128.4,293c-3.5,8.1-3.4,17.3,0.4,25.2c-4.5-3.7-18.2-13.8-49.7-26.8c1.6-5.2,2-10.8,1.2-16.2
			c-0.2-1.8-0.1-3.5,0.2-5.2C97.5,275.4,113.6,283.1,128.4,293z"/>
	</g>
</g>
<g id="XMLID_3_">
	<g>
		<path class="st0" d="M-31.6,270.1c0.3,1.8,0.3,3.5,0.2,5.2c-0.8,5.5-0.3,10.9,1.3,16.2c-31.6,13.1-45.4,23.1-49.8,26.8
			c3.8-7.9,4-17.2,0.4-25.2C-64.7,283.2-48.6,275.5-31.6,270.1z"/>
	</g>
</g>
<g id="XMLID_2_">
	<g>
		<path class="st0" d="M203.3-32c5.7,12,6.5,25.1,2.5,42.2c-3.3,14.4-1.7,19-0.7,20.4c0.3,1.2,1.7,6.3,3.2,14.9s2.9,20.9,3.5,36.5
			c0.1,3.4,0.2,7.1,0.3,10.8c0,1.8-0.1,3.6-0.3,5.4c0,0.4,0,0.8-0.1,1.3c-0.2,1.7-0.3,3.4-0.5,5v0.4c-0.2,1.5-0.4,2.9-0.7,4.4
			c-0.1,0.5-0.2,0.9-0.3,1.4c-0.3,1.4-0.6,2.9-0.9,4.2c-0.1,0.4-0.2,0.8-0.3,1.2c-0.3,1-0.5,2-0.8,3c-0.2,0.6-0.3,1.1-0.5,1.6
			c-0.3,1.1-0.7,2.2-1.1,3.3c-0.3,0.6-0.4,1.2-0.7,1.8s-0.6,1.5-0.8,2.2c-0.2,0.7-0.4,1.1-0.7,1.6c-0.4,1-0.8,2-1.3,3
			c-0.3,0.4-0.4,0.9-0.7,1.3c-0.3,0.7-0.7,1.3-1,2l-0.6,1.2c-0.5,1-1,1.9-1.5,2.8l-0.4,0.8c-0.5,0.8-1,1.7-1.5,2.5l-0.2,0.3
			c-3,4.6-6.5,8.9-10.2,12.8c-1.3,1.3-2.6,2.5-3.9,3.6c-18.9,5.8-40.7,6.9-45.6,7.1c1.7-4,3.5-8.4,5.5-12.9l2.4-0.8
			c38.3-13.1,44.4-36.6,44.8-38.8c0.8-2.2,12.2-40.1-12.2-78.3c-24.8-38.7-47.7-49.3-55.3-52.8h-0.1l-0.3-0.1l-0.3-0.2
			c-0.9-0.5-1.2-0.8-1.2-0.9l0.1-0.1c0.2-0.3,0.4-0.4,0.8-0.5c0.3-0.2,0.7-0.3,1-0.4l0.4-0.1h0.3c2.6-0.4,5.3-0.4,7.8,0.2l0.8,0.2
			l1.3,0.3c0.6,0.2,1.2,0.3,1.8,0.6l0.8,0.3c0.8,0.3,1.5,0.5,2.2,0.8h0.2c2.2,0.8,4.2,1.7,6.1,2.5c5.7,2.4,11.3,5.3,16.5,8.6
			l0.7,0.4c3.4,2.1,6.2,4.2,8.7,6.1l2.8,2c2.2,1.7,4.5,3.3,6.8,4.8l0.8,0.4l0.6,0.3c1.2,0.7,2.5,1,3.9,1c5.5,0,8.1-3,10.6-9.7
			c1-2.7,1.9-6,3.1-9.9l0.1-0.4l0.1-0.3c1.6-6,2.9-12,3.6-18.1l0.2-1.3l0.2-1.1c0-0.3,0.1-0.7,0.2-1L203.3-32L203.3-32z"/>
	</g>
</g>
<g id="XMLID_1_">
	<g>
		<path class="st0" d="M-73.5-19c0.3,0.1,0.8,0.3,1.1,0.4c0.3,0.1,0.4,0.3,0.7,0.4l0.1,0.2c0,0.1-0.3,0.4-1.1,0.9l-0.4,0.3l-0.3,0.2
			c-6,2.8-11.8,6.1-17.2,10.2c-1.8,1.3-3.7,2.9-5.7,4.6c-2.9,2.5-6.1,5.3-9.3,8.6c-0.9,0.9-1.9,1.9-2.9,3l-0.4,0.4
			c-7.5,7.9-14.1,16.6-20,25.9c-14.7,23-19.1,51.1-12.4,77.4l0.2,0.4v0.1v0.3c0.3,1.1,1.9,7.5,8.3,15.2c6.4,7.8,17.5,16.9,36.8,23.3
			l2.3,0.8c1.5,4.7,3.3,9,5,13c-4.9-0.2-26.7-1.3-45.6-7.1c-1.3-1.1-2.5-2.2-3.7-3.4c-5.8-5.9-10.7-12.5-14.5-19.8v-0.2
			c-0.4-0.9-0.9-2-1.5-3.2l-0.2-0.3c-0.5-1.2-1.1-2.4-1.5-3.5l-0.4-1c-0.4-1-0.8-2-1.2-3l-0.3-0.9c-0.4-1.2-0.8-2.4-1.3-3.7
			c-0.2-0.5-0.3-0.9-0.4-1.4c-0.3-1-0.6-2.1-0.8-3.2c-0.1-0.4-0.2-0.8-0.3-1.2c-0.3-1.3-0.6-2.7-0.9-4.1c-0.1-0.5-0.2-1-0.3-1.5
			c-0.3-1.3-0.4-2.6-0.6-3.9c0-0.3-0.1-0.6-0.1-0.8c-0.2-1.5-0.3-3.2-0.5-4.8c0-0.5,0-0.9-0.1-1.4c-0.1-1.7-0.2-3.4-0.3-5.2v-0.1
			c0.1-19,1.7-33.9,3.3-44.4s3.3-16.6,3.7-17.9c0.6-1,1-2.1,1.1-3.2v-0.1c0-0.3,0-0.5,0.1-0.8s0-0.3,0-0.5s0-0.3,0-0.4
			c0-0.2,0-0.4,0-0.7c0-0.1,0-0.2,0-0.2c0-0.5,0-0.9,0-1.4c0-0.1,0-0.2,0-0.3s0-0.6,0-0.9s0-0.3,0-0.3c0-0.5-0.1-1-0.2-1.6
			c0-0.2,0-0.4,0-0.6s0-0.6-0.1-0.8c-0.1-0.3-0.1-0.6-0.1-0.9l-0.1-0.8c-0.1-0.6-0.2-1.2-0.3-1.8l-0.1-0.5c-0.1-0.5-0.2-1.1-0.3-1.6
			l-0.1-0.6c-0.2-0.8-0.3-1.5-0.5-2.3c-0.9-4-1.7-8.1-2.1-12.2c0-0.6-0.1-1.2-0.2-1.8s0-0.8-0.1-1.1c-0.8-9.3,0.8-18.6,4.8-27.1
			l0.2-0.3c0.2,1.1,0.3,2.3,0.5,3.4c0.8,6.1,1.9,12.2,3.6,18.1l0.3,0.8c2.7,9,4.4,14.7,7.6,17.5c1.7,1.4,3.9,2.3,6.1,2.1
			c2.5-0.3,4.9-1.2,6.8-2.8l1.3-0.8l0.3-0.3l0.3-0.3c1-0.8,2.2-1.5,3.4-2.4c10.6-8.3,22.3-15,34.8-19.8h0.1c0.8-0.3,1.5-0.7,2.4-0.9
			l0.6-0.2c0.8-0.3,1.5-0.5,2.3-0.7h0.3c0.6-0.2,1.2-0.3,1.8-0.4l0.8-0.2l1.3-0.2c0.5,0,1-0.1,1.5-0.1h0.3c1,0,2,0,3,0.2
			c0.3,0,0.7,0.1,1,0.2L-73.5-19L-73.5-19z"/>
	</g>
</g>
<path class="st0" d="M122.1,211.3l-0.4-3c-18.1,2.4-30.8,28.7-31.3,29.8l2.8,1.3C93.4,239.1,105.6,213.4,122.1,211.3z"/>
<path class="st0" d="M-72.8,208.2l-0.4,3c16.5,2.2,28.8,27.9,29,28.1l2.8-1.3C-42.1,237-54.7,210.6-72.8,208.2z"/>
<path class="st0" d="M24.5,255.1c5.1,3.1,11,4.7,17,4.7H42l-0.1-3c-5.8,0-11.6-1.7-16.5-4.8l-0.8-0.6l-0.8,0.6
	c-5,3.1-10.7,4.8-16.5,4.8l-0.1,3C13.3,259.9,19.3,258.3,24.5,255.1z"/>
<path class="st0" d="M197.5,103.9l3,0.3c4-34.8-5.2-64.9-27.4-89.6l-2.3,2C192.4,40.6,201.4,70,197.5,103.9z"/>
<path class="st0" d="M199.6,110.8l-3-0.6c0,0.2-2.6,13.5-11.6,21.9l2.1,2.3C196.8,125.2,199.4,111.3,199.6,110.8z"/>
<path class="st0" d="M-148.6,103.9c-3.9-33.8,5-63.2,26.5-87.2l-2.3-2c-22.1,24.6-31.2,54.7-27.2,89.5L-148.6,103.9z"/>
<path class="st0" d="M-150.7,110.8c0.1,0.6,2.8,14.5,12.5,23.6l2.1-2.3c-9-8.4-11.6-21.7-11.6-21.9L-150.7,110.8z"/>
</svg>
